<svg xmlns="http://www.w3.org/2000/svg" width="35" height="35" viewBox="0 0 84 100" preserveAspectRatio="xMidYMid meet">
  <g transform="translate(0.000000,100.000000) scale(0.100000,-0.100000)" fill="#000000" stroke="none">
    <path d="M303 946 c-153 -50 -263 -197 -263 -351 0 -130 74 -257 262 -449 l118 -121 118 121 c129 131 208 240 242 331 63 167 -23 364 -195 448 -49 25 -73 30 -149 32 -58 2 -107 -2 -133 -11z m253 -61 c104 -47 174 -136 195 -251 20 -108 -40 -231 -193 -399 -40 -44 -88 -93 -105 -109 l-33 -28 -32 28 c-58 51 -178 187 -224 254 -24 36 -53 95 -65 132 -17 56 -19 74 -10 122 20 109 85 197 181 246 88 45 195 47 286 5z"/>
    <path d="M380 600 c-11 -11 -20 -29 -20 -40 0 -11 9 -29 20 -40 11 -11 29 -20 40 -20 26 0 60 34 60 60 0 11 -9 29 -20 40 -11 11 -29 20 -40 20 -11 0 -29 -9 -40 -20z"/>
  </g>
</svg>
