<svg    xmlns="http://www.w3.org/2000/svg"
        width="20"
        height="24"
        viewBox="0 0 20 24"
        fill="none"
        style="vertical-align: middle;"
      >
        <mask id="path-1-inside-1_2573_2553" fill="white">
          <path
            fill-rule="evenodd"
            clip-rule="evenodd"
            d="M10 24L17.0708 16.4471C18.88 14.7026 20 12.2942 20 9.63379C20 4.31297 15.5231 0 10 0C4.47692 0 0 4.31297 0 9.63379C0 12.2942 1.11846 14.7026 2.92923 16.4471L10 24ZM10 12C8.61955 12 7.50005 10.9253 7.50005 9.60004C7.50005 8.27476 8.61955 7.20004 10 7.20004C11.3805 7.20004 12.5 8.27476 12.5 9.60004C12.5 10.9253 11.3805 12 10 12Z"
          ></path>
        </mask>
        <path
          d="M17.0708 16.4471L16.3767 15.7272L16.3582 15.745L16.3407 15.7637L17.0708 16.4471ZM10 24L9.26998 24.6834L10 25.4632L10.73 24.6834L10 24ZM2.92923 16.4471L3.65925 15.7637L3.64161 15.7448L3.62303 15.7269L2.92923 16.4471ZM16.3407 15.7637L9.26998 23.3166L10.73 24.6834L17.8008 17.1305L16.3407 15.7637ZM19 9.63379C19 12.0056 18.003 14.1591 16.3767 15.7272L17.7649 17.167C19.757 15.2462 21 12.5828 21 9.63379H19ZM10 1C15.0063 1 19 4.9001 19 9.63379H21C21 3.72585 16.0399 -1 10 -1V1ZM1 9.63379C1 4.9001 4.99372 1 10 1V-1C3.96013 -1 -1 3.72585 -1 9.63379H1ZM3.62303 15.7269C1.99567 14.1592 1 12.006 1 9.63379H-1C-1 12.5824 0.241257 15.2461 2.23543 17.1673L3.62303 15.7269ZM10.73 23.3166L3.65925 15.7637L2.19921 17.1305L9.26998 24.6834L10.73 23.3166ZM6.50005 9.60004C6.50005 11.5157 8.10613 13 10 13V11C9.13297 11 8.50005 10.335 8.50005 9.60004H6.50005ZM10 6.20004C8.10613 6.20004 6.50005 7.68439 6.50005 9.60004H8.50005C8.50005 8.86513 9.13297 8.20004 10 8.20004V6.20004ZM13.5 9.60004C13.5 7.68439 11.894 6.20004 10 6.20004V8.20004C10.8671 8.20004 11.5 8.86513 11.5 9.60004H13.5ZM10 13C11.894 13 13.5 11.5157 13.5 9.60004H11.5C11.5 10.335 10.8671 11 10 11V13Z"
          fill="#111111"
          mask="url(#path-1-inside-1_2573_2553)"
        ></path>
</svg>
